<svg height="512" viewBox="0 0 64 64" width="512" xmlns="http://www.w3.org/2000/svg"><g fill-rule="evenodd"><path d="m48 64h-32a15.9982 15.9982 0 0 1 -16-16v-32a15.9982 15.9982 0 0 1 16-16h32a15.9982 15.9982 0 0 1 16 16v32a15.9982 15.9982 0 0 1 -16 16" fill="#7387dc"/><path d="m30 18h18a9.0006 9.0006 0 0 0 .92-17.954c-.31-.017-.61-.046-.92-.046h-32a15.9982 15.9982 0 0 0 -16 16v32a30 30 0 0 1 30-30" fill="#8ca0f5"/><path d="m48 32a16 16 0 1 0 16 16v-32a15.9982 15.9982 0 0 1 -16 16" fill="#5a6ec3"/></g><path d="m27.83 31.463a2.5462 2.5462 0 1 0 2.33 2.537 2.436 2.436 0 0 0 -2.33-2.537" fill="#fff"/><path d="m36.17 31.463a2.5462 2.5462 0 1 0 2.33 2.537 2.436 2.436 0 0 0 -2.33-2.537" fill="#fff"/><path d="m52 16.994a4.696 4.696 0 0 0 -4.69-4.708h-30.62a4.696 4.696 0 0 0 -4.69 4.708v30.297a4.6963 4.6963 0 0 0 4.69 4.709h24.5a.9965.9965 0 0 0 .96-1.275c-.34-1.171-.78-2.725-.78-2.725s5.95 5.595 8.94 8.415a1.0016 1.0016 0 0 0 1.69-.728zm-13.32 25.128a.6439.6439 0 0 1 -.53-.238l-.71-.873a.65.65 0 0 1 .27-1.016 6.85 6.85 0 0 0 3.27-2.43 16.8406 16.8406 0 0 1 -17.96 0 6.85 6.85 0 0 0 3.27 2.43.65.65 0 0 1 .27 1.016l-.71.873a.6439.6439 0 0 1 -.53.238 8.2852 8.2852 0 0 1 -6.67-3.459 30.6221 30.6221 0 0 1 3.29-13.326 11.5331 11.5331 0 0 1 6.31-2.399.2465.2465 0 0 1 .19.084.2411.2411 0 0 1 -.11.393 14.957 14.957 0 0 0 -5.34 2.791 18.7336 18.7336 0 0 1 18.02 0 14.957 14.957 0 0 0 -5.34-2.791.2411.2411 0 0 1 -.11-.393.2465.2465 0 0 1 .19-.084 11.5331 11.5331 0 0 1 6.31 2.399 30.6221 30.6221 0 0 1 3.29 13.326 8.2852 8.2852 0 0 1 -6.67 3.459z" fill="#fff"/></svg>